<?xml version="1.0" encoding="UTF-8" standalone="no"?>
<!DOCTYPE svg PUBLIC "-//W3C//DTD SVG 1.1//EN"
 "http://www.w3.org/Graphics/SVG/1.1/DTD/svg11.dtd">
<!-- Generated by graphviz version 2.40.1 (20161225.0304)
 -->
<!-- Title: G Pages: 1 -->
<svg width="683pt" height="1134pt"
 viewBox="0.00 0.00 682.50 1134.00" xmlns="http://www.w3.org/2000/svg" xmlns:xlink="http://www.w3.org/1999/xlink">
<g id="graph0" class="graph" transform="scale(1 1) rotate(0) translate(4 1130)">
<title>G</title>
<polygon fill="#ffffff" stroke="transparent" points="-4,4 -4,-1130 678.5,-1130 678.5,4 -4,4"/>
<!-- 140320090353224 -->
<g id="node1" class="node">
<title>140320090353224</title>
<polygon fill="none" stroke="#000000" points="155,-1079.5 155,-1125.5 529,-1125.5 529,-1079.5 155,-1079.5"/>
<text text-anchor="middle" x="235" y="-1098.8" font-family="Times,serif" font-size="14.00" fill="#000000">input_1: InputLayer</text>
<polyline fill="none" stroke="#000000" points="315,-1079.5 315,-1125.5 "/>
<text text-anchor="middle" x="349" y="-1110.3" font-family="Times,serif" font-size="14.00" fill="#000000">input:</text>
<polyline fill="none" stroke="#000000" points="315,-1102.5 383,-1102.5 "/>
<text text-anchor="middle" x="349" y="-1087.3" font-family="Times,serif" font-size="14.00" fill="#000000">output:</text>
<polyline fill="none" stroke="#000000" points="383,-1079.5 383,-1125.5 "/>
<text text-anchor="middle" x="456" y="-1110.3" font-family="Times,serif" font-size="14.00" fill="#000000">(None, 66, 200, 3)</text>
<polyline fill="none" stroke="#000000" points="383,-1102.5 529,-1102.5 "/>
<text text-anchor="middle" x="456" y="-1087.3" font-family="Times,serif" font-size="14.00" fill="#000000">(None, 66, 200, 3)</text>
</g>
<!-- 140320090353392 -->
<g id="node2" class="node">
<title>140320090353392</title>
<polygon fill="none" stroke="#000000" points="159,-996.5 159,-1042.5 525,-1042.5 525,-996.5 159,-996.5"/>
<text text-anchor="middle" x="235" y="-1015.8" font-family="Times,serif" font-size="14.00" fill="#000000">lambda_1: Lambda</text>
<polyline fill="none" stroke="#000000" points="311,-996.5 311,-1042.5 "/>
<text text-anchor="middle" x="345" y="-1027.3" font-family="Times,serif" font-size="14.00" fill="#000000">input:</text>
<polyline fill="none" stroke="#000000" points="311,-1019.5 379,-1019.5 "/>
<text text-anchor="middle" x="345" y="-1004.3" font-family="Times,serif" font-size="14.00" fill="#000000">output:</text>
<polyline fill="none" stroke="#000000" points="379,-996.5 379,-1042.5 "/>
<text text-anchor="middle" x="452" y="-1027.3" font-family="Times,serif" font-size="14.00" fill="#000000">(None, 66, 200, 3)</text>
<polyline fill="none" stroke="#000000" points="379,-1019.5 525,-1019.5 "/>
<text text-anchor="middle" x="452" y="-1004.3" font-family="Times,serif" font-size="14.00" fill="#000000">(None, 66, 200, 3)</text>
</g>
<!-- 140320090353224&#45;&gt;140320090353392 -->
<g id="edge1" class="edge">
<title>140320090353224&#45;&gt;140320090353392</title>
<path fill="none" stroke="#000000" d="M342,-1079.3799C342,-1071.1745 342,-1061.7679 342,-1052.8786"/>
<polygon fill="#000000" stroke="#000000" points="345.5001,-1052.784 342,-1042.784 338.5001,-1052.784 345.5001,-1052.784"/>
</g>
<!-- 140320090307440 -->
<g id="node3" class="node">
<title>140320090307440</title>
<polygon fill="none" stroke="#000000" points="156.5,-913.5 156.5,-959.5 527.5,-959.5 527.5,-913.5 156.5,-913.5"/>
<text text-anchor="middle" x="235" y="-932.8" font-family="Times,serif" font-size="14.00" fill="#000000">dropout_1: Dropout</text>
<polyline fill="none" stroke="#000000" points="313.5,-913.5 313.5,-959.5 "/>
<text text-anchor="middle" x="347.5" y="-944.3" font-family="Times,serif" font-size="14.00" fill="#000000">input:</text>
<polyline fill="none" stroke="#000000" points="313.5,-936.5 381.5,-936.5 "/>
<text text-anchor="middle" x="347.5" y="-921.3" font-family="Times,serif" font-size="14.00" fill="#000000">output:</text>
<polyline fill="none" stroke="#000000" points="381.5,-913.5 381.5,-959.5 "/>
<text text-anchor="middle" x="454.5" y="-944.3" font-family="Times,serif" font-size="14.00" fill="#000000">(None, 66, 200, 3)</text>
<polyline fill="none" stroke="#000000" points="381.5,-936.5 527.5,-936.5 "/>
<text text-anchor="middle" x="454.5" y="-921.3" font-family="Times,serif" font-size="14.00" fill="#000000">(None, 66, 200, 3)</text>
</g>
<!-- 140320090353392&#45;&gt;140320090307440 -->
<g id="edge2" class="edge">
<title>140320090353392&#45;&gt;140320090307440</title>
<path fill="none" stroke="#000000" d="M342,-996.3799C342,-988.1745 342,-978.7679 342,-969.8786"/>
<polygon fill="#000000" stroke="#000000" points="345.5001,-969.784 342,-959.784 338.5001,-969.784 345.5001,-969.784"/>
</g>
<!-- 140320090353336 -->
<g id="node4" class="node">
<title>140320090353336</title>
<polygon fill="none" stroke="#000000" points="159.5,-830.5 159.5,-876.5 524.5,-876.5 524.5,-830.5 159.5,-830.5"/>
<text text-anchor="middle" x="235" y="-849.8" font-family="Times,serif" font-size="14.00" fill="#000000">conv2d_1: Conv2D</text>
<polyline fill="none" stroke="#000000" points="310.5,-830.5 310.5,-876.5 "/>
<text text-anchor="middle" x="344.5" y="-861.3" font-family="Times,serif" font-size="14.00" fill="#000000">input:</text>
<polyline fill="none" stroke="#000000" points="310.5,-853.5 378.5,-853.5 "/>
<text text-anchor="middle" x="344.5" y="-838.3" font-family="Times,serif" font-size="14.00" fill="#000000">output:</text>
<polyline fill="none" stroke="#000000" points="378.5,-830.5 378.5,-876.5 "/>
<text text-anchor="middle" x="451.5" y="-861.3" font-family="Times,serif" font-size="14.00" fill="#000000">(None, 66, 200, 3)</text>
<polyline fill="none" stroke="#000000" points="378.5,-853.5 524.5,-853.5 "/>
<text text-anchor="middle" x="451.5" y="-838.3" font-family="Times,serif" font-size="14.00" fill="#000000">(None, 31, 98, 24)</text>
</g>
<!-- 140320090307440&#45;&gt;140320090353336 -->
<g id="edge3" class="edge">
<title>140320090307440&#45;&gt;140320090353336</title>
<path fill="none" stroke="#000000" d="M342,-913.3799C342,-905.1745 342,-895.7679 342,-886.8786"/>
<polygon fill="#000000" stroke="#000000" points="345.5001,-886.784 342,-876.784 338.5001,-886.784 345.5001,-886.784"/>
</g>
<!-- 140320090307384 -->
<g id="node5" class="node">
<title>140320090307384</title>
<polygon fill="none" stroke="#000000" points="159.5,-747.5 159.5,-793.5 524.5,-793.5 524.5,-747.5 159.5,-747.5"/>
<text text-anchor="middle" x="235" y="-766.8" font-family="Times,serif" font-size="14.00" fill="#000000">conv2d_2: Conv2D</text>
<polyline fill="none" stroke="#000000" points="310.5,-747.5 310.5,-793.5 "/>
<text text-anchor="middle" x="344.5" y="-778.3" font-family="Times,serif" font-size="14.00" fill="#000000">input:</text>
<polyline fill="none" stroke="#000000" points="310.5,-770.5 378.5,-770.5 "/>
<text text-anchor="middle" x="344.5" y="-755.3" font-family="Times,serif" font-size="14.00" fill="#000000">output:</text>
<polyline fill="none" stroke="#000000" points="378.5,-747.5 378.5,-793.5 "/>
<text text-anchor="middle" x="451.5" y="-778.3" font-family="Times,serif" font-size="14.00" fill="#000000">(None, 31, 98, 24)</text>
<polyline fill="none" stroke="#000000" points="378.5,-770.5 524.5,-770.5 "/>
<text text-anchor="middle" x="451.5" y="-755.3" font-family="Times,serif" font-size="14.00" fill="#000000">(None, 14, 47, 36)</text>
</g>
<!-- 140320090353336&#45;&gt;140320090307384 -->
<g id="edge4" class="edge">
<title>140320090353336&#45;&gt;140320090307384</title>
<path fill="none" stroke="#000000" d="M342,-830.3799C342,-822.1745 342,-812.7679 342,-803.8786"/>
<polygon fill="#000000" stroke="#000000" points="345.5001,-803.784 342,-793.784 338.5001,-803.784 345.5001,-803.784"/>
</g>
<!-- 140320089878480 -->
<g id="node6" class="node">
<title>140320089878480</title>
<polygon fill="none" stroke="#000000" points="159.5,-664.5 159.5,-710.5 524.5,-710.5 524.5,-664.5 159.5,-664.5"/>
<text text-anchor="middle" x="235" y="-683.8" font-family="Times,serif" font-size="14.00" fill="#000000">conv2d_3: Conv2D</text>
<polyline fill="none" stroke="#000000" points="310.5,-664.5 310.5,-710.5 "/>
<text text-anchor="middle" x="344.5" y="-695.3" font-family="Times,serif" font-size="14.00" fill="#000000">input:</text>
<polyline fill="none" stroke="#000000" points="310.5,-687.5 378.5,-687.5 "/>
<text text-anchor="middle" x="344.5" y="-672.3" font-family="Times,serif" font-size="14.00" fill="#000000">output:</text>
<polyline fill="none" stroke="#000000" points="378.5,-664.5 378.5,-710.5 "/>
<text text-anchor="middle" x="451.5" y="-695.3" font-family="Times,serif" font-size="14.00" fill="#000000">(None, 14, 47, 36)</text>
<polyline fill="none" stroke="#000000" points="378.5,-687.5 524.5,-687.5 "/>
<text text-anchor="middle" x="451.5" y="-672.3" font-family="Times,serif" font-size="14.00" fill="#000000">(None, 5, 22, 48)</text>
</g>
<!-- 140320090307384&#45;&gt;140320089878480 -->
<g id="edge5" class="edge">
<title>140320090307384&#45;&gt;140320089878480</title>
<path fill="none" stroke="#000000" d="M342,-747.3799C342,-739.1745 342,-729.7679 342,-720.8786"/>
<polygon fill="#000000" stroke="#000000" points="345.5001,-720.784 342,-710.784 338.5001,-720.784 345.5001,-720.784"/>
</g>
<!-- 140320089616280 -->
<g id="node7" class="node">
<title>140320089616280</title>
<polygon fill="none" stroke="#000000" points="164,-581.5 164,-627.5 520,-627.5 520,-581.5 164,-581.5"/>
<text text-anchor="middle" x="239.5" y="-600.8" font-family="Times,serif" font-size="14.00" fill="#000000">conv2d_4: Conv2D</text>
<polyline fill="none" stroke="#000000" points="315,-581.5 315,-627.5 "/>
<text text-anchor="middle" x="349" y="-612.3" font-family="Times,serif" font-size="14.00" fill="#000000">input:</text>
<polyline fill="none" stroke="#000000" points="315,-604.5 383,-604.5 "/>
<text text-anchor="middle" x="349" y="-589.3" font-family="Times,serif" font-size="14.00" fill="#000000">output:</text>
<polyline fill="none" stroke="#000000" points="383,-581.5 383,-627.5 "/>
<text text-anchor="middle" x="451.5" y="-612.3" font-family="Times,serif" font-size="14.00" fill="#000000">(None, 5, 22, 48)</text>
<polyline fill="none" stroke="#000000" points="383,-604.5 520,-604.5 "/>
<text text-anchor="middle" x="451.5" y="-589.3" font-family="Times,serif" font-size="14.00" fill="#000000">(None, 3, 20, 64)</text>
</g>
<!-- 140320089878480&#45;&gt;140320089616280 -->
<g id="edge6" class="edge">
<title>140320089878480&#45;&gt;140320089616280</title>
<path fill="none" stroke="#000000" d="M342,-664.3799C342,-656.1745 342,-646.7679 342,-637.8786"/>
<polygon fill="#000000" stroke="#000000" points="345.5001,-637.784 342,-627.784 338.5001,-637.784 345.5001,-637.784"/>
</g>
<!-- 140320089763400 -->
<g id="node8" class="node">
<title>140320089763400</title>
<polygon fill="none" stroke="#000000" points="164,-498.5 164,-544.5 520,-544.5 520,-498.5 164,-498.5"/>
<text text-anchor="middle" x="239.5" y="-517.8" font-family="Times,serif" font-size="14.00" fill="#000000">conv2d_5: Conv2D</text>
<polyline fill="none" stroke="#000000" points="315,-498.5 315,-544.5 "/>
<text text-anchor="middle" x="349" y="-529.3" font-family="Times,serif" font-size="14.00" fill="#000000">input:</text>
<polyline fill="none" stroke="#000000" points="315,-521.5 383,-521.5 "/>
<text text-anchor="middle" x="349" y="-506.3" font-family="Times,serif" font-size="14.00" fill="#000000">output:</text>
<polyline fill="none" stroke="#000000" points="383,-498.5 383,-544.5 "/>
<text text-anchor="middle" x="451.5" y="-529.3" font-family="Times,serif" font-size="14.00" fill="#000000">(None, 3, 20, 64)</text>
<polyline fill="none" stroke="#000000" points="383,-521.5 520,-521.5 "/>
<text text-anchor="middle" x="451.5" y="-506.3" font-family="Times,serif" font-size="14.00" fill="#000000">(None, 1, 18, 64)</text>
</g>
<!-- 140320089616280&#45;&gt;140320089763400 -->
<g id="edge7" class="edge">
<title>140320089616280&#45;&gt;140320089763400</title>
<path fill="none" stroke="#000000" d="M342,-581.3799C342,-573.1745 342,-563.7679 342,-554.8786"/>
<polygon fill="#000000" stroke="#000000" points="345.5001,-554.784 342,-544.784 338.5001,-554.784 345.5001,-554.784"/>
</g>
<!-- 140320089361712 -->
<g id="node9" class="node">
<title>140320089361712</title>
<polygon fill="none" stroke="#000000" points="169,-415.5 169,-461.5 515,-461.5 515,-415.5 169,-415.5"/>
<text text-anchor="middle" x="239.5" y="-434.8" font-family="Times,serif" font-size="14.00" fill="#000000">flatten_1: Flatten</text>
<polyline fill="none" stroke="#000000" points="310,-415.5 310,-461.5 "/>
<text text-anchor="middle" x="344" y="-446.3" font-family="Times,serif" font-size="14.00" fill="#000000">input:</text>
<polyline fill="none" stroke="#000000" points="310,-438.5 378,-438.5 "/>
<text text-anchor="middle" x="344" y="-423.3" font-family="Times,serif" font-size="14.00" fill="#000000">output:</text>
<polyline fill="none" stroke="#000000" points="378,-415.5 378,-461.5 "/>
<text text-anchor="middle" x="446.5" y="-446.3" font-family="Times,serif" font-size="14.00" fill="#000000">(None, 1, 18, 64)</text>
<polyline fill="none" stroke="#000000" points="378,-438.5 515,-438.5 "/>
<text text-anchor="middle" x="446.5" y="-423.3" font-family="Times,serif" font-size="14.00" fill="#000000">(None, 1152)</text>
</g>
<!-- 140320089763400&#45;&gt;140320089361712 -->
<g id="edge8" class="edge">
<title>140320089763400&#45;&gt;140320089361712</title>
<path fill="none" stroke="#000000" d="M342,-498.3799C342,-490.1745 342,-480.7679 342,-471.8786"/>
<polygon fill="#000000" stroke="#000000" points="345.5001,-471.784 342,-461.784 338.5001,-471.784 345.5001,-471.784"/>
</g>
<!-- 140320089551144 -->
<g id="node10" class="node">
<title>140320089551144</title>
<polygon fill="none" stroke="#000000" points="14,-332.5 14,-378.5 338,-378.5 338,-332.5 14,-332.5"/>
<text text-anchor="middle" x="87" y="-351.8" font-family="Times,serif" font-size="14.00" fill="#000000">steering_1: Dense</text>
<polyline fill="none" stroke="#000000" points="160,-332.5 160,-378.5 "/>
<text text-anchor="middle" x="194" y="-363.3" font-family="Times,serif" font-size="14.00" fill="#000000">input:</text>
<polyline fill="none" stroke="#000000" points="160,-355.5 228,-355.5 "/>
<text text-anchor="middle" x="194" y="-340.3" font-family="Times,serif" font-size="14.00" fill="#000000">output:</text>
<polyline fill="none" stroke="#000000" points="228,-332.5 228,-378.5 "/>
<text text-anchor="middle" x="283" y="-363.3" font-family="Times,serif" font-size="14.00" fill="#000000">(None, 1152)</text>
<polyline fill="none" stroke="#000000" points="228,-355.5 338,-355.5 "/>
<text text-anchor="middle" x="283" y="-340.3" font-family="Times,serif" font-size="14.00" fill="#000000">(None, 100)</text>
</g>
<!-- 140320089361712&#45;&gt;140320089551144 -->
<g id="edge9" class="edge">
<title>140320089361712&#45;&gt;140320089551144</title>
<path fill="none" stroke="#000000" d="M295.7597,-415.3799C275.7872,-405.3936 252.2558,-393.6279 231.3622,-383.1811"/>
<polygon fill="#000000" stroke="#000000" points="232.7894,-379.9816 222.2799,-378.6399 229.6589,-386.2426 232.7894,-379.9816"/>
</g>
<!-- 140320089308520 -->
<g id="node13" class="node">
<title>140320089308520</title>
<polygon fill="none" stroke="#000000" points="357,-332.5 357,-378.5 663,-378.5 663,-332.5 357,-332.5"/>
<text text-anchor="middle" x="421" y="-351.8" font-family="Times,serif" font-size="14.00" fill="#000000">speed_1: Dense</text>
<polyline fill="none" stroke="#000000" points="485,-332.5 485,-378.5 "/>
<text text-anchor="middle" x="519" y="-363.3" font-family="Times,serif" font-size="14.00" fill="#000000">input:</text>
<polyline fill="none" stroke="#000000" points="485,-355.5 553,-355.5 "/>
<text text-anchor="middle" x="519" y="-340.3" font-family="Times,serif" font-size="14.00" fill="#000000">output:</text>
<polyline fill="none" stroke="#000000" points="553,-332.5 553,-378.5 "/>
<text text-anchor="middle" x="608" y="-363.3" font-family="Times,serif" font-size="14.00" fill="#000000">(None, 1152)</text>
<polyline fill="none" stroke="#000000" points="553,-355.5 663,-355.5 "/>
<text text-anchor="middle" x="608" y="-340.3" font-family="Times,serif" font-size="14.00" fill="#000000">(None, 30)</text>
</g>
<!-- 140320089361712&#45;&gt;140320089308520 -->
<g id="edge12" class="edge">
<title>140320089361712&#45;&gt;140320089308520</title>
<path fill="none" stroke="#000000" d="M388.7974,-415.3799C409.0106,-405.3936 432.8254,-393.6279 453.9708,-383.1811"/>
<polygon fill="#000000" stroke="#000000" points="455.7473,-386.2073 463.1625,-378.6399 452.6467,-379.9315 455.7473,-386.2073"/>
</g>
<!-- 140320089152592 -->
<g id="node11" class="node">
<title>140320089152592</title>
<polygon fill="none" stroke="#000000" points="10,-249.5 10,-295.5 336,-295.5 336,-249.5 10,-249.5"/>
<text text-anchor="middle" x="88.5" y="-268.8" font-family="Times,serif" font-size="14.00" fill="#000000">dropout_2: Dropout</text>
<polyline fill="none" stroke="#000000" points="167,-249.5 167,-295.5 "/>
<text text-anchor="middle" x="201" y="-280.3" font-family="Times,serif" font-size="14.00" fill="#000000">input:</text>
<polyline fill="none" stroke="#000000" points="167,-272.5 235,-272.5 "/>
<text text-anchor="middle" x="201" y="-257.3" font-family="Times,serif" font-size="14.00" fill="#000000">output:</text>
<polyline fill="none" stroke="#000000" points="235,-249.5 235,-295.5 "/>
<text text-anchor="middle" x="285.5" y="-280.3" font-family="Times,serif" font-size="14.00" fill="#000000">(None, 100)</text>
<polyline fill="none" stroke="#000000" points="235,-272.5 336,-272.5 "/>
<text text-anchor="middle" x="285.5" y="-257.3" font-family="Times,serif" font-size="14.00" fill="#000000">(None, 100)</text>
</g>
<!-- 140320089551144&#45;&gt;140320089152592 -->
<g id="edge10" class="edge">
<title>140320089551144&#45;&gt;140320089152592</title>
<path fill="none" stroke="#000000" d="M175.1643,-332.3799C174.8678,-324.1745 174.5278,-314.7679 174.2065,-305.8786"/>
<polygon fill="#000000" stroke="#000000" points="177.7006,-305.651 173.8416,-295.784 170.7052,-305.9039 177.7006,-305.651"/>
</g>
<!-- 140320089151360 -->
<g id="node12" class="node">
<title>140320089151360</title>
<polygon fill="none" stroke="#000000" points="14.5,-166.5 14.5,-212.5 329.5,-212.5 329.5,-166.5 14.5,-166.5"/>
<text text-anchor="middle" x="87.5" y="-185.8" font-family="Times,serif" font-size="14.00" fill="#000000">steering_2: Dense</text>
<polyline fill="none" stroke="#000000" points="160.5,-166.5 160.5,-212.5 "/>
<text text-anchor="middle" x="194.5" y="-197.3" font-family="Times,serif" font-size="14.00" fill="#000000">input:</text>
<polyline fill="none" stroke="#000000" points="160.5,-189.5 228.5,-189.5 "/>
<text text-anchor="middle" x="194.5" y="-174.3" font-family="Times,serif" font-size="14.00" fill="#000000">output:</text>
<polyline fill="none" stroke="#000000" points="228.5,-166.5 228.5,-212.5 "/>
<text text-anchor="middle" x="279" y="-197.3" font-family="Times,serif" font-size="14.00" fill="#000000">(None, 100)</text>
<polyline fill="none" stroke="#000000" points="228.5,-189.5 329.5,-189.5 "/>
<text text-anchor="middle" x="279" y="-174.3" font-family="Times,serif" font-size="14.00" fill="#000000">(None, 50)</text>
</g>
<!-- 140320089152592&#45;&gt;140320089151360 -->
<g id="edge11" class="edge">
<title>140320089152592&#45;&gt;140320089151360</title>
<path fill="none" stroke="#000000" d="M172.7214,-249.3799C172.6226,-241.1745 172.5093,-231.7679 172.4022,-222.8786"/>
<polygon fill="#000000" stroke="#000000" points="175.9008,-222.7411 172.2805,-212.784 168.9014,-222.8255 175.9008,-222.7411"/>
</g>
<!-- 140320089420744 -->
<g id="node14" class="node">
<title>140320089420744</title>
<polygon fill="none" stroke="#000000" points="19,-83.5 19,-129.5 325,-129.5 325,-83.5 19,-83.5"/>
<text text-anchor="middle" x="92" y="-102.8" font-family="Times,serif" font-size="14.00" fill="#000000">steering_3: Dense</text>
<polyline fill="none" stroke="#000000" points="165,-83.5 165,-129.5 "/>
<text text-anchor="middle" x="199" y="-114.3" font-family="Times,serif" font-size="14.00" fill="#000000">input:</text>
<polyline fill="none" stroke="#000000" points="165,-106.5 233,-106.5 "/>
<text text-anchor="middle" x="199" y="-91.3" font-family="Times,serif" font-size="14.00" fill="#000000">output:</text>
<polyline fill="none" stroke="#000000" points="233,-83.5 233,-129.5 "/>
<text text-anchor="middle" x="279" y="-114.3" font-family="Times,serif" font-size="14.00" fill="#000000">(None, 50)</text>
<polyline fill="none" stroke="#000000" points="233,-106.5 325,-106.5 "/>
<text text-anchor="middle" x="279" y="-91.3" font-family="Times,serif" font-size="14.00" fill="#000000">(None, 10)</text>
</g>
<!-- 140320089151360&#45;&gt;140320089420744 -->
<g id="edge13" class="edge">
<title>140320089151360&#45;&gt;140320089420744</title>
<path fill="none" stroke="#000000" d="M172,-166.3799C172,-158.1745 172,-148.7679 172,-139.8786"/>
<polygon fill="#000000" stroke="#000000" points="175.5001,-139.784 172,-129.784 168.5001,-139.784 175.5001,-139.784"/>
</g>
<!-- 140320089073984 -->
<g id="node15" class="node">
<title>140320089073984</title>
<polygon fill="none" stroke="#000000" points="366,-249.5 366,-295.5 654,-295.5 654,-249.5 366,-249.5"/>
<text text-anchor="middle" x="430" y="-268.8" font-family="Times,serif" font-size="14.00" fill="#000000">speed_2: Dense</text>
<polyline fill="none" stroke="#000000" points="494,-249.5 494,-295.5 "/>
<text text-anchor="middle" x="528" y="-280.3" font-family="Times,serif" font-size="14.00" fill="#000000">input:</text>
<polyline fill="none" stroke="#000000" points="494,-272.5 562,-272.5 "/>
<text text-anchor="middle" x="528" y="-257.3" font-family="Times,serif" font-size="14.00" fill="#000000">output:</text>
<polyline fill="none" stroke="#000000" points="562,-249.5 562,-295.5 "/>
<text text-anchor="middle" x="608" y="-280.3" font-family="Times,serif" font-size="14.00" fill="#000000">(None, 30)</text>
<polyline fill="none" stroke="#000000" points="562,-272.5 654,-272.5 "/>
<text text-anchor="middle" x="608" y="-257.3" font-family="Times,serif" font-size="14.00" fill="#000000">(None, 10)</text>
</g>
<!-- 140320089308520&#45;&gt;140320089073984 -->
<g id="edge14" class="edge">
<title>140320089308520&#45;&gt;140320089073984</title>
<path fill="none" stroke="#000000" d="M510,-332.3799C510,-324.1745 510,-314.7679 510,-305.8786"/>
<polygon fill="#000000" stroke="#000000" points="513.5001,-305.784 510,-295.784 506.5001,-305.784 513.5001,-305.784"/>
</g>
<!-- 140320088620952 -->
<g id="node16" class="node">
<title>140320088620952</title>
<polygon fill="none" stroke="#000000" points="0,-.5 0,-46.5 344,-46.5 344,-.5 0,-.5"/>
<text text-anchor="middle" x="92" y="-19.8" font-family="Times,serif" font-size="14.00" fill="#000000">steering_output: Dense</text>
<polyline fill="none" stroke="#000000" points="184,-.5 184,-46.5 "/>
<text text-anchor="middle" x="218" y="-31.3" font-family="Times,serif" font-size="14.00" fill="#000000">input:</text>
<polyline fill="none" stroke="#000000" points="184,-23.5 252,-23.5 "/>
<text text-anchor="middle" x="218" y="-8.3" font-family="Times,serif" font-size="14.00" fill="#000000">output:</text>
<polyline fill="none" stroke="#000000" points="252,-.5 252,-46.5 "/>
<text text-anchor="middle" x="298" y="-31.3" font-family="Times,serif" font-size="14.00" fill="#000000">(None, 10)</text>
<polyline fill="none" stroke="#000000" points="252,-23.5 344,-23.5 "/>
<text text-anchor="middle" x="298" y="-8.3" font-family="Times,serif" font-size="14.00" fill="#000000">(None, 1)</text>
</g>
<!-- 140320089420744&#45;&gt;140320088620952 -->
<g id="edge15" class="edge">
<title>140320089420744&#45;&gt;140320088620952</title>
<path fill="none" stroke="#000000" d="M172,-83.3799C172,-75.1745 172,-65.7679 172,-56.8786"/>
<polygon fill="#000000" stroke="#000000" points="175.5001,-56.784 172,-46.784 168.5001,-56.784 175.5001,-56.784"/>
</g>
<!-- 140320088745352 -->
<g id="node17" class="node">
<title>140320088745352</title>
<polygon fill="none" stroke="#000000" points="347.5,-166.5 347.5,-212.5 674.5,-212.5 674.5,-166.5 347.5,-166.5"/>
<text text-anchor="middle" x="431" y="-185.8" font-family="Times,serif" font-size="14.00" fill="#000000">speed_output: Dense</text>
<polyline fill="none" stroke="#000000" points="514.5,-166.5 514.5,-212.5 "/>
<text text-anchor="middle" x="548.5" y="-197.3" font-family="Times,serif" font-size="14.00" fill="#000000">input:</text>
<polyline fill="none" stroke="#000000" points="514.5,-189.5 582.5,-189.5 "/>
<text text-anchor="middle" x="548.5" y="-174.3" font-family="Times,serif" font-size="14.00" fill="#000000">output:</text>
<polyline fill="none" stroke="#000000" points="582.5,-166.5 582.5,-212.5 "/>
<text text-anchor="middle" x="628.5" y="-197.3" font-family="Times,serif" font-size="14.00" fill="#000000">(None, 10)</text>
<polyline fill="none" stroke="#000000" points="582.5,-189.5 674.5,-189.5 "/>
<text text-anchor="middle" x="628.5" y="-174.3" font-family="Times,serif" font-size="14.00" fill="#000000">(None, 1)</text>
</g>
<!-- 140320089073984&#45;&gt;140320088745352 -->
<g id="edge16" class="edge">
<title>140320089073984&#45;&gt;140320088745352</title>
<path fill="none" stroke="#000000" d="M510.2786,-249.3799C510.3774,-241.1745 510.4907,-231.7679 510.5978,-222.8786"/>
<polygon fill="#000000" stroke="#000000" points="514.0986,-222.8255 510.7195,-212.784 507.0992,-222.7411 514.0986,-222.8255"/>
</g>
</g>
</svg>
