<?xml version="1.0" encoding="UTF-8" standalone="no"?>
<!DOCTYPE svg PUBLIC "-//W3C//DTD SVG 1.1//EN"
 "http://www.w3.org/Graphics/SVG/1.1/DTD/svg11.dtd">
<!-- Generated by graphviz version 2.40.1 (20161225.0304)
 -->
<!-- Title: G Pages: 1 -->
<svg width="679pt" height="1051pt"
 viewBox="0.00 0.00 678.50 1051.00" xmlns="http://www.w3.org/2000/svg" xmlns:xlink="http://www.w3.org/1999/xlink">
<g id="graph0" class="graph" transform="scale(1 1) rotate(0) translate(4 1047)">
<title>G</title>
<polygon fill="#ffffff" stroke="transparent" points="-4,4 -4,-1047 674.5,-1047 674.5,4 -4,4"/>
<!-- 139728512076376 -->
<g id="node1" class="node">
<title>139728512076376</title>
<polygon fill="none" stroke="#000000" points="147.5,-996.5 147.5,-1042.5 530.5,-1042.5 530.5,-996.5 147.5,-996.5"/>
<text text-anchor="middle" x="227.5" y="-1015.8" font-family="Times,serif" font-size="14.00" fill="#000000">input_1: InputLayer</text>
<polyline fill="none" stroke="#000000" points="307.5,-996.5 307.5,-1042.5 "/>
<text text-anchor="middle" x="341.5" y="-1027.3" font-family="Times,serif" font-size="14.00" fill="#000000">input:</text>
<polyline fill="none" stroke="#000000" points="307.5,-1019.5 375.5,-1019.5 "/>
<text text-anchor="middle" x="341.5" y="-1004.3" font-family="Times,serif" font-size="14.00" fill="#000000">output:</text>
<polyline fill="none" stroke="#000000" points="375.5,-996.5 375.5,-1042.5 "/>
<text text-anchor="middle" x="453" y="-1027.3" font-family="Times,serif" font-size="14.00" fill="#000000">(None, 160, 320, 3)</text>
<polyline fill="none" stroke="#000000" points="375.5,-1019.5 530.5,-1019.5 "/>
<text text-anchor="middle" x="453" y="-1004.3" font-family="Times,serif" font-size="14.00" fill="#000000">(None, 160, 320, 3)</text>
</g>
<!-- 139728512077720 -->
<g id="node2" class="node">
<title>139728512077720</title>
<polygon fill="none" stroke="#000000" points="151.5,-913.5 151.5,-959.5 526.5,-959.5 526.5,-913.5 151.5,-913.5"/>
<text text-anchor="middle" x="227.5" y="-932.8" font-family="Times,serif" font-size="14.00" fill="#000000">lambda_1: Lambda</text>
<polyline fill="none" stroke="#000000" points="303.5,-913.5 303.5,-959.5 "/>
<text text-anchor="middle" x="337.5" y="-944.3" font-family="Times,serif" font-size="14.00" fill="#000000">input:</text>
<polyline fill="none" stroke="#000000" points="303.5,-936.5 371.5,-936.5 "/>
<text text-anchor="middle" x="337.5" y="-921.3" font-family="Times,serif" font-size="14.00" fill="#000000">output:</text>
<polyline fill="none" stroke="#000000" points="371.5,-913.5 371.5,-959.5 "/>
<text text-anchor="middle" x="449" y="-944.3" font-family="Times,serif" font-size="14.00" fill="#000000">(None, 160, 320, 3)</text>
<polyline fill="none" stroke="#000000" points="371.5,-936.5 526.5,-936.5 "/>
<text text-anchor="middle" x="449" y="-921.3" font-family="Times,serif" font-size="14.00" fill="#000000">(None, 160, 320, 3)</text>
</g>
<!-- 139728512076376&#45;&gt;139728512077720 -->
<g id="edge1" class="edge">
<title>139728512076376&#45;&gt;139728512077720</title>
<path fill="none" stroke="#000000" d="M339,-996.3799C339,-988.1745 339,-978.7679 339,-969.8786"/>
<polygon fill="#000000" stroke="#000000" points="342.5001,-969.784 339,-959.784 335.5001,-969.784 342.5001,-969.784"/>
</g>
<!-- 139728513111264 -->
<g id="node3" class="node">
<title>139728513111264</title>
<polygon fill="none" stroke="#000000" points="102.5,-830.5 102.5,-876.5 575.5,-876.5 575.5,-830.5 102.5,-830.5"/>
<text text-anchor="middle" x="227.5" y="-849.8" font-family="Times,serif" font-size="14.00" fill="#000000">convolution2d_1: Convolution2D</text>
<polyline fill="none" stroke="#000000" points="352.5,-830.5 352.5,-876.5 "/>
<text text-anchor="middle" x="386.5" y="-861.3" font-family="Times,serif" font-size="14.00" fill="#000000">input:</text>
<polyline fill="none" stroke="#000000" points="352.5,-853.5 420.5,-853.5 "/>
<text text-anchor="middle" x="386.5" y="-838.3" font-family="Times,serif" font-size="14.00" fill="#000000">output:</text>
<polyline fill="none" stroke="#000000" points="420.5,-830.5 420.5,-876.5 "/>
<text text-anchor="middle" x="498" y="-861.3" font-family="Times,serif" font-size="14.00" fill="#000000">(None, 160, 320, 3)</text>
<polyline fill="none" stroke="#000000" points="420.5,-853.5 575.5,-853.5 "/>
<text text-anchor="middle" x="498" y="-838.3" font-family="Times,serif" font-size="14.00" fill="#000000">(None, 78, 158, 24)</text>
</g>
<!-- 139728512077720&#45;&gt;139728513111264 -->
<g id="edge2" class="edge">
<title>139728512077720&#45;&gt;139728513111264</title>
<path fill="none" stroke="#000000" d="M339,-913.3799C339,-905.1745 339,-895.7679 339,-886.8786"/>
<polygon fill="#000000" stroke="#000000" points="342.5001,-886.784 339,-876.784 335.5001,-886.784 342.5001,-886.784"/>
</g>
<!-- 139728513037760 -->
<g id="node4" class="node">
<title>139728513037760</title>
<polygon fill="none" stroke="#000000" points="102.5,-747.5 102.5,-793.5 575.5,-793.5 575.5,-747.5 102.5,-747.5"/>
<text text-anchor="middle" x="227.5" y="-766.8" font-family="Times,serif" font-size="14.00" fill="#000000">convolution2d_2: Convolution2D</text>
<polyline fill="none" stroke="#000000" points="352.5,-747.5 352.5,-793.5 "/>
<text text-anchor="middle" x="386.5" y="-778.3" font-family="Times,serif" font-size="14.00" fill="#000000">input:</text>
<polyline fill="none" stroke="#000000" points="352.5,-770.5 420.5,-770.5 "/>
<text text-anchor="middle" x="386.5" y="-755.3" font-family="Times,serif" font-size="14.00" fill="#000000">output:</text>
<polyline fill="none" stroke="#000000" points="420.5,-747.5 420.5,-793.5 "/>
<text text-anchor="middle" x="498" y="-778.3" font-family="Times,serif" font-size="14.00" fill="#000000">(None, 78, 158, 24)</text>
<polyline fill="none" stroke="#000000" points="420.5,-770.5 575.5,-770.5 "/>
<text text-anchor="middle" x="498" y="-755.3" font-family="Times,serif" font-size="14.00" fill="#000000">(None, 37, 77, 36)</text>
</g>
<!-- 139728513111264&#45;&gt;139728513037760 -->
<g id="edge3" class="edge">
<title>139728513111264&#45;&gt;139728513037760</title>
<path fill="none" stroke="#000000" d="M339,-830.3799C339,-822.1745 339,-812.7679 339,-803.8786"/>
<polygon fill="#000000" stroke="#000000" points="342.5001,-803.784 339,-793.784 335.5001,-803.784 342.5001,-803.784"/>
</g>
<!-- 139728511647472 -->
<g id="node5" class="node">
<title>139728511647472</title>
<polygon fill="none" stroke="#000000" points="109,-664.5 109,-710.5 569,-710.5 569,-664.5 109,-664.5"/>
<text text-anchor="middle" x="232" y="-683.8" font-family="Times,serif" font-size="14.00" fill="#000000">maxpooling2d_1: MaxPooling2D</text>
<polyline fill="none" stroke="#000000" points="355,-664.5 355,-710.5 "/>
<text text-anchor="middle" x="389" y="-695.3" font-family="Times,serif" font-size="14.00" fill="#000000">input:</text>
<polyline fill="none" stroke="#000000" points="355,-687.5 423,-687.5 "/>
<text text-anchor="middle" x="389" y="-672.3" font-family="Times,serif" font-size="14.00" fill="#000000">output:</text>
<polyline fill="none" stroke="#000000" points="423,-664.5 423,-710.5 "/>
<text text-anchor="middle" x="496" y="-695.3" font-family="Times,serif" font-size="14.00" fill="#000000">(None, 37, 77, 36)</text>
<polyline fill="none" stroke="#000000" points="423,-687.5 569,-687.5 "/>
<text text-anchor="middle" x="496" y="-672.3" font-family="Times,serif" font-size="14.00" fill="#000000">(None, 18, 38, 36)</text>
</g>
<!-- 139728513037760&#45;&gt;139728511647472 -->
<g id="edge4" class="edge">
<title>139728513037760&#45;&gt;139728511647472</title>
<path fill="none" stroke="#000000" d="M339,-747.3799C339,-739.1745 339,-729.7679 339,-720.8786"/>
<polygon fill="#000000" stroke="#000000" points="342.5001,-720.784 339,-710.784 335.5001,-720.784 342.5001,-720.784"/>
</g>
<!-- 139728511744880 -->
<g id="node6" class="node">
<title>139728511744880</title>
<polygon fill="none" stroke="#000000" points="107,-581.5 107,-627.5 571,-627.5 571,-581.5 107,-581.5"/>
<text text-anchor="middle" x="232" y="-600.8" font-family="Times,serif" font-size="14.00" fill="#000000">convolution2d_3: Convolution2D</text>
<polyline fill="none" stroke="#000000" points="357,-581.5 357,-627.5 "/>
<text text-anchor="middle" x="391" y="-612.3" font-family="Times,serif" font-size="14.00" fill="#000000">input:</text>
<polyline fill="none" stroke="#000000" points="357,-604.5 425,-604.5 "/>
<text text-anchor="middle" x="391" y="-589.3" font-family="Times,serif" font-size="14.00" fill="#000000">output:</text>
<polyline fill="none" stroke="#000000" points="425,-581.5 425,-627.5 "/>
<text text-anchor="middle" x="498" y="-612.3" font-family="Times,serif" font-size="14.00" fill="#000000">(None, 18, 38, 36)</text>
<polyline fill="none" stroke="#000000" points="425,-604.5 571,-604.5 "/>
<text text-anchor="middle" x="498" y="-589.3" font-family="Times,serif" font-size="14.00" fill="#000000">(None, 7, 17, 48)</text>
</g>
<!-- 139728511647472&#45;&gt;139728511744880 -->
<g id="edge5" class="edge">
<title>139728511647472&#45;&gt;139728511744880</title>
<path fill="none" stroke="#000000" d="M339,-664.3799C339,-656.1745 339,-646.7679 339,-637.8786"/>
<polygon fill="#000000" stroke="#000000" points="342.5001,-637.784 339,-627.784 335.5001,-637.784 342.5001,-637.784"/>
</g>
<!-- 139728511745216 -->
<g id="node7" class="node">
<title>139728511745216</title>
<polygon fill="none" stroke="#000000" points="111.5,-498.5 111.5,-544.5 566.5,-544.5 566.5,-498.5 111.5,-498.5"/>
<text text-anchor="middle" x="236.5" y="-517.8" font-family="Times,serif" font-size="14.00" fill="#000000">convolution2d_4: Convolution2D</text>
<polyline fill="none" stroke="#000000" points="361.5,-498.5 361.5,-544.5 "/>
<text text-anchor="middle" x="395.5" y="-529.3" font-family="Times,serif" font-size="14.00" fill="#000000">input:</text>
<polyline fill="none" stroke="#000000" points="361.5,-521.5 429.5,-521.5 "/>
<text text-anchor="middle" x="395.5" y="-506.3" font-family="Times,serif" font-size="14.00" fill="#000000">output:</text>
<polyline fill="none" stroke="#000000" points="429.5,-498.5 429.5,-544.5 "/>
<text text-anchor="middle" x="498" y="-529.3" font-family="Times,serif" font-size="14.00" fill="#000000">(None, 7, 17, 48)</text>
<polyline fill="none" stroke="#000000" points="429.5,-521.5 566.5,-521.5 "/>
<text text-anchor="middle" x="498" y="-506.3" font-family="Times,serif" font-size="14.00" fill="#000000">(None, 5, 15, 64)</text>
</g>
<!-- 139728511744880&#45;&gt;139728511745216 -->
<g id="edge6" class="edge">
<title>139728511744880&#45;&gt;139728511745216</title>
<path fill="none" stroke="#000000" d="M339,-581.3799C339,-573.1745 339,-563.7679 339,-554.8786"/>
<polygon fill="#000000" stroke="#000000" points="342.5001,-554.784 339,-544.784 335.5001,-554.784 342.5001,-554.784"/>
</g>
<!-- 139728511831064 -->
<g id="node8" class="node">
<title>139728511831064</title>
<polygon fill="none" stroke="#000000" points="111.5,-415.5 111.5,-461.5 566.5,-461.5 566.5,-415.5 111.5,-415.5"/>
<text text-anchor="middle" x="236.5" y="-434.8" font-family="Times,serif" font-size="14.00" fill="#000000">convolution2d_5: Convolution2D</text>
<polyline fill="none" stroke="#000000" points="361.5,-415.5 361.5,-461.5 "/>
<text text-anchor="middle" x="395.5" y="-446.3" font-family="Times,serif" font-size="14.00" fill="#000000">input:</text>
<polyline fill="none" stroke="#000000" points="361.5,-438.5 429.5,-438.5 "/>
<text text-anchor="middle" x="395.5" y="-423.3" font-family="Times,serif" font-size="14.00" fill="#000000">output:</text>
<polyline fill="none" stroke="#000000" points="429.5,-415.5 429.5,-461.5 "/>
<text text-anchor="middle" x="498" y="-446.3" font-family="Times,serif" font-size="14.00" fill="#000000">(None, 5, 15, 64)</text>
<polyline fill="none" stroke="#000000" points="429.5,-438.5 566.5,-438.5 "/>
<text text-anchor="middle" x="498" y="-423.3" font-family="Times,serif" font-size="14.00" fill="#000000">(None, 3, 13, 64)</text>
</g>
<!-- 139728511745216&#45;&gt;139728511831064 -->
<g id="edge7" class="edge">
<title>139728511745216&#45;&gt;139728511831064</title>
<path fill="none" stroke="#000000" d="M339,-498.3799C339,-490.1745 339,-480.7679 339,-471.8786"/>
<polygon fill="#000000" stroke="#000000" points="342.5001,-471.784 339,-461.784 335.5001,-471.784 342.5001,-471.784"/>
</g>
<!-- 139728511385328 -->
<g id="node9" class="node">
<title>139728511385328</title>
<polygon fill="none" stroke="#000000" points="166,-332.5 166,-378.5 512,-378.5 512,-332.5 166,-332.5"/>
<text text-anchor="middle" x="236.5" y="-351.8" font-family="Times,serif" font-size="14.00" fill="#000000">flatten_1: Flatten</text>
<polyline fill="none" stroke="#000000" points="307,-332.5 307,-378.5 "/>
<text text-anchor="middle" x="341" y="-363.3" font-family="Times,serif" font-size="14.00" fill="#000000">input:</text>
<polyline fill="none" stroke="#000000" points="307,-355.5 375,-355.5 "/>
<text text-anchor="middle" x="341" y="-340.3" font-family="Times,serif" font-size="14.00" fill="#000000">output:</text>
<polyline fill="none" stroke="#000000" points="375,-332.5 375,-378.5 "/>
<text text-anchor="middle" x="443.5" y="-363.3" font-family="Times,serif" font-size="14.00" fill="#000000">(None, 3, 13, 64)</text>
<polyline fill="none" stroke="#000000" points="375,-355.5 512,-355.5 "/>
<text text-anchor="middle" x="443.5" y="-340.3" font-family="Times,serif" font-size="14.00" fill="#000000">(None, 2496)</text>
</g>
<!-- 139728511831064&#45;&gt;139728511385328 -->
<g id="edge8" class="edge">
<title>139728511831064&#45;&gt;139728511385328</title>
<path fill="none" stroke="#000000" d="M339,-415.3799C339,-407.1745 339,-397.7679 339,-388.8786"/>
<polygon fill="#000000" stroke="#000000" points="342.5001,-388.784 339,-378.784 335.5001,-388.784 342.5001,-388.784"/>
</g>
<!-- 139728511467192 -->
<g id="node10" class="node">
<title>139728511467192</title>
<polygon fill="none" stroke="#000000" points="11,-249.5 11,-295.5 335,-295.5 335,-249.5 11,-249.5"/>
<text text-anchor="middle" x="84" y="-268.8" font-family="Times,serif" font-size="14.00" fill="#000000">steering_1: Dense</text>
<polyline fill="none" stroke="#000000" points="157,-249.5 157,-295.5 "/>
<text text-anchor="middle" x="191" y="-280.3" font-family="Times,serif" font-size="14.00" fill="#000000">input:</text>
<polyline fill="none" stroke="#000000" points="157,-272.5 225,-272.5 "/>
<text text-anchor="middle" x="191" y="-257.3" font-family="Times,serif" font-size="14.00" fill="#000000">output:</text>
<polyline fill="none" stroke="#000000" points="225,-249.5 225,-295.5 "/>
<text text-anchor="middle" x="280" y="-280.3" font-family="Times,serif" font-size="14.00" fill="#000000">(None, 2496)</text>
<polyline fill="none" stroke="#000000" points="225,-272.5 335,-272.5 "/>
<text text-anchor="middle" x="280" y="-257.3" font-family="Times,serif" font-size="14.00" fill="#000000">(None, 100)</text>
</g>
<!-- 139728511385328&#45;&gt;139728511467192 -->
<g id="edge9" class="edge">
<title>139728511385328&#45;&gt;139728511467192</title>
<path fill="none" stroke="#000000" d="M292.7597,-332.3799C272.7872,-322.3936 249.2558,-310.6279 228.3622,-300.1811"/>
<polygon fill="#000000" stroke="#000000" points="229.7894,-296.9816 219.2799,-295.6399 226.6589,-303.2426 229.7894,-296.9816"/>
</g>
<!-- 139728511579136 -->
<g id="node12" class="node">
<title>139728511579136</title>
<polygon fill="none" stroke="#000000" points="353,-249.5 353,-295.5 659,-295.5 659,-249.5 353,-249.5"/>
<text text-anchor="middle" x="417" y="-268.8" font-family="Times,serif" font-size="14.00" fill="#000000">speed_1: Dense</text>
<polyline fill="none" stroke="#000000" points="481,-249.5 481,-295.5 "/>
<text text-anchor="middle" x="515" y="-280.3" font-family="Times,serif" font-size="14.00" fill="#000000">input:</text>
<polyline fill="none" stroke="#000000" points="481,-272.5 549,-272.5 "/>
<text text-anchor="middle" x="515" y="-257.3" font-family="Times,serif" font-size="14.00" fill="#000000">output:</text>
<polyline fill="none" stroke="#000000" points="549,-249.5 549,-295.5 "/>
<text text-anchor="middle" x="604" y="-280.3" font-family="Times,serif" font-size="14.00" fill="#000000">(None, 2496)</text>
<polyline fill="none" stroke="#000000" points="549,-272.5 659,-272.5 "/>
<text text-anchor="middle" x="604" y="-257.3" font-family="Times,serif" font-size="14.00" fill="#000000">(None, 50)</text>
</g>
<!-- 139728511385328&#45;&gt;139728511579136 -->
<g id="edge11" class="edge">
<title>139728511385328&#45;&gt;139728511579136</title>
<path fill="none" stroke="#000000" d="M385.5188,-332.3799C405.6117,-322.3936 429.2848,-310.6279 450.3043,-300.1811"/>
<polygon fill="#000000" stroke="#000000" points="452.0441,-303.2249 459.4413,-295.6399 448.9286,-296.9564 452.0441,-303.2249"/>
</g>
<!-- 139728511499680 -->
<g id="node11" class="node">
<title>139728511499680</title>
<polygon fill="none" stroke="#000000" points="15.5,-166.5 15.5,-212.5 330.5,-212.5 330.5,-166.5 15.5,-166.5"/>
<text text-anchor="middle" x="88.5" y="-185.8" font-family="Times,serif" font-size="14.00" fill="#000000">steering_2: Dense</text>
<polyline fill="none" stroke="#000000" points="161.5,-166.5 161.5,-212.5 "/>
<text text-anchor="middle" x="195.5" y="-197.3" font-family="Times,serif" font-size="14.00" fill="#000000">input:</text>
<polyline fill="none" stroke="#000000" points="161.5,-189.5 229.5,-189.5 "/>
<text text-anchor="middle" x="195.5" y="-174.3" font-family="Times,serif" font-size="14.00" fill="#000000">output:</text>
<polyline fill="none" stroke="#000000" points="229.5,-166.5 229.5,-212.5 "/>
<text text-anchor="middle" x="280" y="-197.3" font-family="Times,serif" font-size="14.00" fill="#000000">(None, 100)</text>
<polyline fill="none" stroke="#000000" points="229.5,-189.5 330.5,-189.5 "/>
<text text-anchor="middle" x="280" y="-174.3" font-family="Times,serif" font-size="14.00" fill="#000000">(None, 50)</text>
</g>
<!-- 139728511467192&#45;&gt;139728511499680 -->
<g id="edge10" class="edge">
<title>139728511467192&#45;&gt;139728511499680</title>
<path fill="none" stroke="#000000" d="M173,-249.3799C173,-241.1745 173,-231.7679 173,-222.8786"/>
<polygon fill="#000000" stroke="#000000" points="176.5001,-222.784 173,-212.784 169.5001,-222.784 176.5001,-222.784"/>
</g>
<!-- 139728511095248 -->
<g id="node13" class="node">
<title>139728511095248</title>
<polygon fill="none" stroke="#000000" points="19,-83.5 19,-129.5 325,-129.5 325,-83.5 19,-83.5"/>
<text text-anchor="middle" x="92" y="-102.8" font-family="Times,serif" font-size="14.00" fill="#000000">steering_3: Dense</text>
<polyline fill="none" stroke="#000000" points="165,-83.5 165,-129.5 "/>
<text text-anchor="middle" x="199" y="-114.3" font-family="Times,serif" font-size="14.00" fill="#000000">input:</text>
<polyline fill="none" stroke="#000000" points="165,-106.5 233,-106.5 "/>
<text text-anchor="middle" x="199" y="-91.3" font-family="Times,serif" font-size="14.00" fill="#000000">output:</text>
<polyline fill="none" stroke="#000000" points="233,-83.5 233,-129.5 "/>
<text text-anchor="middle" x="279" y="-114.3" font-family="Times,serif" font-size="14.00" fill="#000000">(None, 50)</text>
<polyline fill="none" stroke="#000000" points="233,-106.5 325,-106.5 "/>
<text text-anchor="middle" x="279" y="-91.3" font-family="Times,serif" font-size="14.00" fill="#000000">(None, 10)</text>
</g>
<!-- 139728511499680&#45;&gt;139728511095248 -->
<g id="edge12" class="edge">
<title>139728511499680&#45;&gt;139728511095248</title>
<path fill="none" stroke="#000000" d="M172.7214,-166.3799C172.6226,-158.1745 172.5093,-148.7679 172.4022,-139.8786"/>
<polygon fill="#000000" stroke="#000000" points="175.9008,-139.7411 172.2805,-129.784 168.9014,-139.8255 175.9008,-139.7411"/>
</g>
<!-- 139728511152080 -->
<g id="node14" class="node">
<title>139728511152080</title>
<polygon fill="none" stroke="#000000" points="362,-166.5 362,-212.5 650,-212.5 650,-166.5 362,-166.5"/>
<text text-anchor="middle" x="426" y="-185.8" font-family="Times,serif" font-size="14.00" fill="#000000">speed_2: Dense</text>
<polyline fill="none" stroke="#000000" points="490,-166.5 490,-212.5 "/>
<text text-anchor="middle" x="524" y="-197.3" font-family="Times,serif" font-size="14.00" fill="#000000">input:</text>
<polyline fill="none" stroke="#000000" points="490,-189.5 558,-189.5 "/>
<text text-anchor="middle" x="524" y="-174.3" font-family="Times,serif" font-size="14.00" fill="#000000">output:</text>
<polyline fill="none" stroke="#000000" points="558,-166.5 558,-212.5 "/>
<text text-anchor="middle" x="604" y="-197.3" font-family="Times,serif" font-size="14.00" fill="#000000">(None, 50)</text>
<polyline fill="none" stroke="#000000" points="558,-189.5 650,-189.5 "/>
<text text-anchor="middle" x="604" y="-174.3" font-family="Times,serif" font-size="14.00" fill="#000000">(None, 10)</text>
</g>
<!-- 139728511579136&#45;&gt;139728511152080 -->
<g id="edge13" class="edge">
<title>139728511579136&#45;&gt;139728511152080</title>
<path fill="none" stroke="#000000" d="M506,-249.3799C506,-241.1745 506,-231.7679 506,-222.8786"/>
<polygon fill="#000000" stroke="#000000" points="509.5001,-222.784 506,-212.784 502.5001,-222.784 509.5001,-222.784"/>
</g>
<!-- 139728511234512 -->
<g id="node15" class="node">
<title>139728511234512</title>
<polygon fill="none" stroke="#000000" points="0,-.5 0,-46.5 344,-46.5 344,-.5 0,-.5"/>
<text text-anchor="middle" x="92" y="-19.8" font-family="Times,serif" font-size="14.00" fill="#000000">steering_output: Dense</text>
<polyline fill="none" stroke="#000000" points="184,-.5 184,-46.5 "/>
<text text-anchor="middle" x="218" y="-31.3" font-family="Times,serif" font-size="14.00" fill="#000000">input:</text>
<polyline fill="none" stroke="#000000" points="184,-23.5 252,-23.5 "/>
<text text-anchor="middle" x="218" y="-8.3" font-family="Times,serif" font-size="14.00" fill="#000000">output:</text>
<polyline fill="none" stroke="#000000" points="252,-.5 252,-46.5 "/>
<text text-anchor="middle" x="298" y="-31.3" font-family="Times,serif" font-size="14.00" fill="#000000">(None, 10)</text>
<polyline fill="none" stroke="#000000" points="252,-23.5 344,-23.5 "/>
<text text-anchor="middle" x="298" y="-8.3" font-family="Times,serif" font-size="14.00" fill="#000000">(None, 1)</text>
</g>
<!-- 139728511095248&#45;&gt;139728511234512 -->
<g id="edge14" class="edge">
<title>139728511095248&#45;&gt;139728511234512</title>
<path fill="none" stroke="#000000" d="M172,-83.3799C172,-75.1745 172,-65.7679 172,-56.8786"/>
<polygon fill="#000000" stroke="#000000" points="175.5001,-56.784 172,-46.784 168.5001,-56.784 175.5001,-56.784"/>
</g>
<!-- 139728511272496 -->
<g id="node16" class="node">
<title>139728511272496</title>
<polygon fill="none" stroke="#000000" points="343.5,-83.5 343.5,-129.5 670.5,-129.5 670.5,-83.5 343.5,-83.5"/>
<text text-anchor="middle" x="427" y="-102.8" font-family="Times,serif" font-size="14.00" fill="#000000">speed_output: Dense</text>
<polyline fill="none" stroke="#000000" points="510.5,-83.5 510.5,-129.5 "/>
<text text-anchor="middle" x="544.5" y="-114.3" font-family="Times,serif" font-size="14.00" fill="#000000">input:</text>
<polyline fill="none" stroke="#000000" points="510.5,-106.5 578.5,-106.5 "/>
<text text-anchor="middle" x="544.5" y="-91.3" font-family="Times,serif" font-size="14.00" fill="#000000">output:</text>
<polyline fill="none" stroke="#000000" points="578.5,-83.5 578.5,-129.5 "/>
<text text-anchor="middle" x="624.5" y="-114.3" font-family="Times,serif" font-size="14.00" fill="#000000">(None, 10)</text>
<polyline fill="none" stroke="#000000" points="578.5,-106.5 670.5,-106.5 "/>
<text text-anchor="middle" x="624.5" y="-91.3" font-family="Times,serif" font-size="14.00" fill="#000000">(None, 1)</text>
</g>
<!-- 139728511152080&#45;&gt;139728511272496 -->
<g id="edge15" class="edge">
<title>139728511152080&#45;&gt;139728511272496</title>
<path fill="none" stroke="#000000" d="M506.2786,-166.3799C506.3774,-158.1745 506.4907,-148.7679 506.5978,-139.8786"/>
<polygon fill="#000000" stroke="#000000" points="510.0986,-139.8255 506.7195,-129.784 503.0992,-139.7411 510.0986,-139.8255"/>
</g>
</g>
</svg>
